<svg width="12" height="14" viewBox="0 0 12 14" fill="none" xmlns="http://www.w3.org/2000/svg">
<path fill-rule="evenodd" clip-rule="evenodd" d="M5.47506 0.156461C5.64592 -0.0143933 5.92293 -0.0143933 6.09378 0.156461C6.26464 0.327315 6.26464 0.604325 6.09378 0.77518L4.33029 2.53867C4.67324 2.50713 5.14308 2.48789 5.78431 2.48789C6.89502 2.48789 7.98078 2.81725 8.9043 3.43433C9.82782 4.05141 10.5476 4.92848 10.9727 5.95464C11.3977 6.9808 11.5089 8.10995 11.2922 9.19932C11.0755 10.2887 10.5407 11.2893 9.7553 12.0747C8.96992 12.8601 7.96927 13.395 6.8799 13.6117C5.79054 13.8283 4.66138 13.7171 3.63522 13.2921C2.60906 12.867 1.73199 12.1472 1.11491 11.2237C0.497837 10.3002 0.168475 9.21443 0.168475 8.10373C0.168475 7.8621 0.36435 7.66622 0.605975 7.66622C0.8476 7.66622 1.04348 7.8621 1.04348 8.10373C1.04348 9.04137 1.32152 9.95796 1.84245 10.7376C2.36338 11.5172 3.1038 12.1249 3.97007 12.4837C4.83634 12.8425 5.78957 12.9364 6.7092 12.7535C7.62883 12.5705 8.47357 12.119 9.13659 11.456C9.7996 10.793 10.2511 9.94825 10.4341 9.02862C10.617 8.10898 10.5231 7.15576 10.1643 6.28949C9.80545 5.42321 9.1978 4.6828 8.41818 4.16187C7.63855 3.64094 6.72196 3.36289 5.78431 3.36289C5.0769 3.36289 4.60794 3.38702 4.30245 3.42091C4.26253 3.42533 4.22626 3.42986 4.19336 3.43437L6.09378 5.33479C6.26464 5.50565 6.26464 5.78266 6.09378 5.95351C5.92293 6.12437 5.64592 6.12437 5.47506 5.95351L2.8859 3.36435C2.71504 3.19349 2.71504 2.91648 2.8859 2.74563L5.47506 0.156461Z" fill="black"/>
</svg>
