<svg width="12" height="14" viewBox="0 0 12 14" fill="none" xmlns="http://www.w3.org/2000/svg">
<path fill-rule="evenodd" clip-rule="evenodd" d="M6.52494 0.156461C6.35408 -0.0143933 6.07707 -0.0143933 5.90622 0.156461C5.73536 0.327315 5.73536 0.604325 5.90622 0.77518L7.66971 2.53867C7.32676 2.50713 6.85692 2.48789 6.21569 2.48789C5.10498 2.48789 4.01922 2.81725 3.0957 3.43433C2.17218 4.05141 1.45239 4.92848 1.02734 5.95464C0.602287 6.9808 0.491075 8.10995 0.707763 9.19932C0.924451 10.2887 1.45931 11.2893 2.2447 12.0747C3.03008 12.8601 4.03073 13.395 5.1201 13.6117C6.20946 13.8283 7.33862 13.7171 8.36478 13.2921C9.39094 12.867 10.268 12.1472 10.8851 11.2237C11.5022 10.3002 11.8315 9.21443 11.8315 8.10373C11.8315 7.8621 11.6356 7.66622 11.394 7.66622C11.1524 7.66622 10.9565 7.8621 10.9565 8.10373C10.9565 9.04137 10.6785 9.95796 10.1576 10.7376C9.63662 11.5172 8.8962 12.1249 8.02993 12.4837C7.16366 12.8425 6.21043 12.9364 5.2908 12.7535C4.37117 12.5705 3.52643 12.119 2.86341 11.456C2.2004 10.793 1.74888 9.94825 1.56595 9.02862C1.38302 8.10898 1.47691 7.15576 1.83573 6.28949C2.19455 5.42321 2.8022 4.6828 3.58182 4.16187C4.36145 3.64094 5.27804 3.36289 6.21569 3.36289C6.9231 3.36289 7.39206 3.38702 7.69755 3.42091C7.73747 3.42533 7.77374 3.42986 7.80664 3.43437L5.90622 5.33479C5.73536 5.50565 5.73536 5.78266 5.90622 5.95351C6.07707 6.12437 6.35408 6.12437 6.52494 5.95351L9.1141 3.36435C9.28496 3.19349 9.28496 2.91648 9.1141 2.74563L6.52494 0.156461Z" fill="black"/>
</svg>
