<svg width="15" height="16" viewBox="0 0 15 16" fill="none" xmlns="http://www.w3.org/2000/svg">
<path d="M14.1495 15.163L8.67025 9.6838C8.23275 10.0565 7.72963 10.345 7.16088 10.5492C6.59213 10.7533 6.02046 10.8554 5.44588 10.8554C4.04471 10.8554 2.8588 10.3704 1.88813 9.4003C0.917462 8.43022 0.432129 7.24459 0.432129 5.84342C0.432129 4.44226 0.916879 3.25605 1.88638 2.2848C2.85588 1.31355 4.04121 0.827341 5.44238 0.826174C6.84355 0.825007 8.03005 1.31034 9.00188 2.28217C9.97371 3.25401 10.4599 4.44022 10.4605 5.8408C10.4605 6.44863 10.3529 7.03692 10.1376 7.60567C9.92238 8.17442 9.63946 8.66092 9.28888 9.06518L14.7681 14.5435L14.1495 15.163ZM5.44588 9.97955C6.60671 9.97955 7.587 9.57997 8.38675 8.7808C9.1865 7.98163 9.58609 7.00134 9.5855 5.83992C9.58492 4.67851 9.18534 3.69851 8.38675 2.89992C7.58817 2.10134 6.60817 1.70176 5.44675 1.70117C4.28534 1.70059 3.30505 2.10017 2.50588 2.89992C1.70671 3.69967 1.30713 4.67967 1.30713 5.83992C1.30713 7.00017 1.70671 7.98017 2.50588 8.77992C3.30505 9.57967 4.28505 9.98013 5.44588 9.97955ZM5.00838 7.9268V6.2783H3.35988V5.4033H5.00838V3.75392H5.88338V5.4033H7.53275V6.2783H5.88338V7.92767L5.00838 7.9268Z" fill="black"/>
</svg>
