<svg width="16" height="16" viewBox="0 0 16 16" fill="none" xmlns="http://www.w3.org/2000/svg">
<path d="M14.5493 15.163L9.07003 9.6838C8.63253 10.0565 8.12941 10.345 7.56066 10.5492C6.99191 10.7533 6.42024 10.8554 5.84566 10.8554C4.44449 10.8554 3.25858 10.3704 2.28791 9.4003C1.31724 8.43022 0.831909 7.24459 0.831909 5.84342C0.831909 4.44226 1.31666 3.25605 2.28616 2.2848C3.25566 1.31355 4.44099 0.827341 5.84216 0.826174C7.24333 0.825007 8.42983 1.31034 9.40166 2.28217C10.3735 3.25401 10.8597 4.44022 10.8603 5.8408C10.8603 6.44863 10.7527 7.03692 10.5374 7.60567C10.3222 8.17442 10.0392 8.66093 9.68866 9.06518L15.1679 14.5435L14.5493 15.163ZM5.84566 9.97955C7.00649 9.97955 7.98678 9.57997 8.78653 8.7808C9.58628 7.98163 9.98587 7.00134 9.98529 5.83992C9.9847 4.67851 9.58512 3.69851 8.78653 2.89992C7.98795 2.10134 7.00795 1.70176 5.84653 1.70117C4.68512 1.70059 3.70483 2.10017 2.90566 2.89992C2.10649 3.69967 1.70691 4.67967 1.70691 5.83992C1.70691 7.00017 2.10649 7.98017 2.90566 8.77992C3.70483 9.57967 4.68483 9.98013 5.84566 9.97955ZM3.86116 6.2783V5.4033H7.83278V6.2783H3.86116Z" fill="black"/>
</svg>
